<?xml version="1.0" encoding="utf-8"?>
<!-- Generator: Adobe Illustrator 26.3.1, SVG Export Plug-In . SVG Version: 6.00 Build 0)  -->
<svg version="1.1" id="Layer_1" xmlns="http://www.w3.org/2000/svg" xmlns:xlink="http://www.w3.org/1999/xlink" x="0px" y="0px"
	 viewBox="0 0 187.9 134.7" style="enable-background:new 0 0 187.9 134.7;" xml:space="preserve">
<style type="text/css">
	.st0{display:none;}
	.st1{display:inline;fill:#50BA6C;}
	.st2{fill:none;}
	.st3{display:none;fill:#50BA6C;}
	.st4{fill:#ECBF49;}
	.st5{fill:#C32129;}
	.st6{fill:#FFFEF3;}
</style>
<g class="st0">
	<path class="st1" d="M58.3,54.2C58.3,54.2,58.4,54.2,58.3,54.2l0,0.4c0,0,0,0,0,0h-0.4V56c0,0,0,0,0,0h-0.5c0,0,0,0,0,0v-1.3h-0.4
		c0,0,0,0,0,0v-0.4c0,0,0,0,0,0H58.3z"/>
	<path class="st1" d="M60,56C60,56,60,56,60,56l-0.6,0c0,0,0,0-0.1,0l-0.3-0.6h0V56c0,0,0,0,0,0h-0.5c0,0,0,0,0,0v-1.7c0,0,0,0,0,0
		h0.7c0.4,0,0.7,0.2,0.7,0.6c0,0.2-0.1,0.4-0.3,0.5L60,56z M59.2,55c0.1,0,0.1-0.1,0.1-0.1s-0.1-0.1-0.1-0.1h-0.2V55H59.2z"/>
	<path class="st1" d="M61.6,54.2C61.6,54.2,61.6,54.2,61.6,54.2l0,1.1c0,0.5-0.2,0.7-0.7,0.7c-0.5,0-0.7-0.2-0.7-0.7v-1.1
		c0,0,0,0,0,0h0.5c0,0,0,0,0,0v1.1c0,0.1,0.1,0.2,0.2,0.2s0.2-0.1,0.2-0.2v-1.1c0,0,0,0,0,0H61.6z"/>
	<path class="st1" d="M62,55.5C62,55.4,62,55.4,62,55.5c0.2,0,0.3,0.1,0.4,0.1c0.1,0,0.1,0,0.1-0.1c0-0.2-0.7-0.1-0.7-0.7
		c0-0.4,0.3-0.6,0.7-0.6c0.2,0,0.4,0.1,0.6,0.2c0,0,0,0,0,0l-0.2,0.4c0,0,0,0,0,0c-0.1-0.1-0.3-0.1-0.4-0.1c-0.1,0-0.1,0-0.1,0.1
		c0,0.2,0.7,0.1,0.7,0.7c0,0.3-0.3,0.6-0.7,0.6c-0.2,0-0.5-0.1-0.6-0.2c0,0,0,0,0,0L62,55.5z"/>
	<path class="st1" d="M64.7,54.2C64.7,54.2,64.7,54.2,64.7,54.2l0,0.4c0,0,0,0,0,0h-0.4V56c0,0,0,0,0,0h-0.5c0,0,0,0,0,0v-1.3h-0.4
		c0,0,0,0,0,0v-0.4c0,0,0,0,0,0H64.7z"/>
</g>
<path class="st2" d="M135.7,98.3c5.9,0,9.9-4.6,9.9-11.5c0,0,0,0,0-0.1h-19.9c0,0,0,0,0,0.1C125.7,93.6,129.7,98.3,135.7,98.3z"/>
<g>
	<path class="st3" d="M57.2,58.2C57.2,58.2,57.2,58.2,57.2,58.2c0.3,0.1,0.5,0.2,0.7,0.2c0.1,0,0.2-0.1,0.2-0.2
		c0-0.2-1.2-0.2-1.2-1.2c0-0.6,0.4-0.9,1.1-0.9c0.3,0,0.7,0.1,0.9,0.3c0,0,0,0.1,0,0.1l-0.3,0.6c0,0,0,0.1-0.1,0
		c-0.2-0.1-0.4-0.2-0.6-0.2c-0.1,0-0.2,0.1-0.2,0.2c0,0.2,1.2,0.2,1.2,1.2c0,0.6-0.4,0.9-1.1,0.9c-0.4,0-0.7-0.1-0.9-0.3
		c0,0,0-0.1,0-0.1L57.2,58.2z"/>
	<path class="st3" d="M61.3,58.3C61.4,58.3,61.4,58.4,61.3,58.3l0.1,0.7c0,0,0,0.1-0.1,0.1h-2c0,0-0.1,0-0.1-0.1v-2.8
		c0,0,0-0.1,0.1-0.1h1.9c0,0,0.1,0,0.1,0.1v0.6c0,0,0,0.1-0.1,0.1h-1.1v0.3h0.9c0,0,0.1,0,0.1,0.1l-0.1,0.6c0,0,0,0.1-0.1,0.1h-0.8
		v0.4H61.3z"/>
	<path class="st3" d="M63.2,59.2c-0.9,0-1.5-0.6-1.5-1.5c0-0.9,0.6-1.5,1.5-1.5c0.9,0,1.5,0.6,1.5,1.5
		C64.7,58.5,64.1,59.2,63.2,59.2z M63.2,57c-0.3,0-0.6,0.3-0.6,0.7c0,0.4,0.2,0.7,0.6,0.7c0.3,0,0.6-0.3,0.6-0.7
		C63.8,57.2,63.5,57,63.2,57z"/>
</g>
<g>
	<path class="st4" d="M34,95.6c0.2-0.7,0.7-0.9,1.3-0.6c3.3,1.9,7.3,3.3,10.1,3.5c2.3,0,3.8-1.1,3.8-2.8c0-4.3-20.4-4.1-20.4-19.9
		c0-9.7,7.3-16.2,18.4-16.2c5.2,0,11.7,2.1,16.2,5.2c0.6,0.4,0.8,0.9,0.6,1.3l-4.6,10.2c-0.2,0.7-0.7,0.9-1.3,0.6
		c-3.6-2-7.7-3.6-10.2-3.8c-2.2,0-3.7,1-3.7,2.6c0,4.3,20.5,4,20.5,19.9c0,9.6-7.5,16.1-18.6,16.1c-6.1,0-12.5-1.9-16.1-4.8
		c-0.6-0.4-0.8-0.9-0.6-1.3L34,95.6z"/>
	<path class="st4" d="M105.3,97.8c0.6,0,1.1,0.4,1.1,0.9v11.1c0,0.5-0.5,1-1.1,1H71.6c-0.5,0-1-0.6-1.2-1.1V61.8c0-0.7,0.4-1,1-1h33
		c0.7,0,1.2,0.5,1.2,1v11c0,0.7-0.5,1.1-1.2,1.1H85.5v5.7h15.4c0.7,0,1,0.5,0.9,0.9l-1,10.2c-0.1,0.4-0.6,0.9-1.2,0.9H85.5v6.2
		H105.3z"/>
	<path class="st4" d="M137.3,111.9c-15.4,0-25.7-10.4-25.7-26c0-15.7,10.3-26.2,25.7-26.2s25.7,10.4,25.7,26.2
		C163.1,101.4,152.8,111.9,137.3,111.9z M137.3,74.3c-5.9,0-9.9,4.6-9.9,11.5c0,6.9,4,11.5,9.9,11.5c5.9,0,9.9-4.6,9.9-11.5
		C147.3,78.9,143.3,74.3,137.3,74.3z"/>
</g>
<g>
	<path class="st4" d="M53.6,27.4c0.4,0,0.7,0.3,0.6,0.6l-0.7,6.8c0,0.4-0.4,0.6-0.7,0.6h-6.7v22.3c0,0.3-0.3,0.6-0.6,0.6h-8
		c-0.4,0-0.7-0.3-0.7-0.6V35.5h-7.5c-0.3,0-0.6-0.3-0.6-0.6v-6.8c0-0.4,0.3-0.7,0.6-0.7H53.6z"/>
	<path class="st4" d="M82.6,57.7c0.2,0.4-0.1,0.7-0.5,0.7h-9.6c-0.4,0-0.9-0.3-1-0.7l-4.7-9.8h-0.5v9.9c0,0.3-0.3,0.6-0.7,0.6h-7.9
		c-0.4,0-0.7-0.3-0.7-0.6V28.1c0-0.4,0.3-0.7,0.7-0.7h11.9c6.9,0,11.5,4,11.5,10.2c0,3.6-2.2,7.1-5.5,8.6L82.6,57.7z M68.9,40.3
		c1.5,0,2.6-0.9,2.6-2.4s-1-2.4-2.6-2.4h-2.7v4.8H68.9z"/>
	<path class="st4" d="M109.2,27.4c0.4,0,0.8,0.4,0.8,0.8v18.7c0,8-4.3,12.1-12.4,12.1c-8,0-12.3-4.2-12.4-12.1V28.2
		c0-0.4,0.4-0.8,0.8-0.8h7.7c0.4,0,0.8,0.4,0.8,0.8v19.5c0,2.1,1.2,3.3,3.1,3.3s3.1-1.2,3.1-3.2V28.2c0-0.4,0.4-0.8,0.8-0.8H109.2z"
		/>
	<path class="st4" d="M116.6,49c0.1-0.4,0.4-0.6,0.8-0.4c2.1,1.2,4.5,2,6.2,2.2c1.4,0,2.4-0.7,2.4-1.7c0-2.7-12.6-2.5-12.6-12.3
		c0-6,4.5-10,11.4-10c3.2,0,7.2,1.3,10.1,3.2c0.4,0.2,0.5,0.6,0.4,0.8l-2.8,6.3c-0.1,0.4-0.4,0.6-0.8,0.4c-2.2-1.3-4.8-2.2-6.3-2.3
		c-1.4,0-2.3,0.6-2.3,1.6c0,2.7,12.7,2.5,12.7,12.4c0,6-4.6,10-11.5,10c-3.8,0-7.7-1.2-10-3c-0.4-0.3-0.5-0.6-0.4-0.8L116.6,49z"/>
	<path class="st4" d="M162.4,27.4c0.4,0,0.7,0.3,0.6,0.6l-0.7,6.8c0,0.4-0.4,0.6-0.7,0.6H155v22.3c0,0.3-0.3,0.6-0.6,0.6h-8
		c-0.4,0-0.7-0.3-0.7-0.6V35.5h-7.5c-0.3,0-0.6-0.3-0.6-0.6v-6.8c0-0.4,0.3-0.7,0.6-0.7H162.4z"/>
</g>
<polygon class="st5" points="181.4,133.3 97.6,118.6 5.2,124.7 17.2,60.8 2.6,0 81.1,19.8 187.9,12.7 172.9,80.7 "/>
<g>
	<g>
		<path class="st6" d="M55.2,27.1c0.4,0,0.7,0.3,0.6,0.6l-0.7,6.8c0,0.4-0.4,0.6-0.7,0.6h-6.7v22.3c0,0.3-0.3,0.6-0.6,0.6h-8
			c-0.4,0-0.7-0.3-0.7-0.6V35.2H31c-0.3,0-0.6-0.3-0.6-0.6v-6.8c0-0.4,0.3-0.7,0.6-0.7H55.2z"/>
		<path class="st6" d="M84.2,57.4c0.2,0.4-0.1,0.7-0.5,0.7h-9.6c-0.4,0-0.9-0.3-1-0.7l-4.7-9.8h-0.5v9.9c0,0.3-0.3,0.6-0.7,0.6h-7.9
			c-0.4,0-0.7-0.3-0.7-0.6V27.8c0-0.4,0.3-0.7,0.7-0.7h11.9c6.9,0,11.5,4,11.5,10.2c0,3.6-2.2,7.1-5.5,8.6L84.2,57.4z M70.5,39.9
			c1.5,0,2.6-0.9,2.6-2.4c0-1.4-1-2.4-2.6-2.4h-2.7v4.8H70.5z"/>
		<path class="st6" d="M110.8,27.1c0.4,0,0.8,0.4,0.8,0.8v18.7c0,8-4.3,12.1-12.4,12.1c-8,0-12.3-4.2-12.4-12.1V27.9
			c0-0.4,0.4-0.8,0.8-0.8h7.7c0.4,0,0.8,0.4,0.8,0.8v19.5c0,2.1,1.2,3.3,3.1,3.3s3.1-1.2,3.1-3.2V27.9c0-0.4,0.4-0.8,0.8-0.8H110.8z
			"/>
		<path class="st6" d="M118.1,48.7c0.1-0.4,0.4-0.6,0.8-0.4c2.1,1.2,4.5,2,6.2,2.2c1.4,0,2.4-0.7,2.4-1.7c0-2.7-12.6-2.5-12.6-12.3
			c0-6,4.5-10,11.4-10c3.2,0,7.2,1.3,10.1,3.2c0.4,0.2,0.5,0.6,0.4,0.8l-2.8,6.3c-0.1,0.4-0.4,0.6-0.8,0.4c-2.2-1.3-4.8-2.2-6.3-2.3
			c-1.4,0-2.3,0.6-2.3,1.6c0,2.7,12.7,2.5,12.7,12.4c0,6-4.6,10-11.5,10c-3.8,0-7.7-1.2-10-3c-0.4-0.3-0.5-0.6-0.4-0.8L118.1,48.7z"
			/>
		<path class="st6" d="M164,27.1c0.4,0,0.7,0.3,0.6,0.6l-0.7,6.8c0,0.4-0.4,0.6-0.7,0.6h-6.7v22.3c0,0.3-0.3,0.6-0.6,0.6h-8
			c-0.4,0-0.7-0.3-0.7-0.6V35.2h-7.5c-0.3,0-0.6-0.3-0.6-0.6v-6.8c0-0.4,0.3-0.7,0.6-0.7H164z"/>
	</g>
</g>
<g>
	<g>
		<path class="st6" d="M35.5,95.6c0.2-0.7,0.7-0.9,1.3-0.6c3.3,1.9,7.3,3.3,10.1,3.5c2.3,0,3.8-1.1,3.8-2.8
			c0-4.3-20.4-4.1-20.4-19.9c0-9.7,7.3-16.2,18.4-16.2c5.2,0,11.7,2.1,16.2,5.2c0.6,0.4,0.8,0.9,0.6,1.3L61,76.4
			c-0.2,0.7-0.7,0.9-1.3,0.6c-3.6-2-7.7-3.6-10.2-3.8c-2.2,0-3.7,1-3.7,2.6c0,4.3,20.5,4,20.5,19.9c0,9.6-7.5,16.1-18.6,16.1
			c-6.1,0-12.5-1.9-16.1-4.8c-0.6-0.4-0.8-0.9-0.6-1.3L35.5,95.6z"/>
		<path class="st6" d="M106.9,97.7c0.6,0,1.1,0.4,1.1,0.9v11.1c0,0.5-0.5,1-1.1,1H73.2c-0.5,0-1-0.6-1.2-1.1V61.8c0-0.7,0.4-1,1-1
			h33c0.7,0,1.2,0.5,1.2,1v11c0,0.7-0.5,1.1-1.2,1.1H87.1v5.7h15.4c0.7,0,1,0.5,0.9,0.9l-1,10.2c-0.1,0.4-0.6,0.9-1.2,0.9H87.1v6.2
			H106.9z"/>
		<path class="st6" d="M138.9,111.8c-15.4,0-25.7-10.4-25.7-26c0-15.7,10.3-26.2,25.7-26.2s25.7,10.4,25.7,26.2
			C164.6,101.4,154.3,111.8,138.9,111.8z M138.9,74.2c-5.9,0-9.9,4.6-9.9,11.5c0,6.9,4,11.5,9.9,11.5s9.9-4.6,9.9-11.5
			C148.8,78.9,144.8,74.2,138.9,74.2z"/>
	</g>
</g>
</svg>
